<svg width="1200" height="1200" xmlns="http://www.w3.org/2000/svg" xmlns:xlink="http://www.w3.org/1999/xlink" version="1.1"><g transform="scale(15.358145223998013) translate(-10.932540257771812, -7.093278249104818)">                        <g fill="#ffffff"><g xmlns="http://www.w3.org/2000/svg"><path d="M62.03,50.68l1.19-1.553C64.532,47.416,76.03,32.204,76.03,25c0-7.72-6.28-14-14-14s-14,6.28-14,14   c0,7.204,11.499,22.416,12.81,24.127L62.03,50.68z M62.03,14c6.065,0,11,4.935,11,11c0,4.708-7.097,15.377-11,20.709   c-3.903-5.332-11-16.001-11-20.709C51.03,18.935,55.965,14,62.03,14z"/><path d="M67.102,25c0-2.796-2.275-5.071-5.071-5.071S56.959,22.204,56.959,25s2.275,5.071,5.071,5.071S67.102,27.796,67.102,25z    M59.959,25c0-1.142,0.929-2.071,2.071-2.071s2.071,0.929,2.071,2.071s-0.929,2.071-2.071,2.071S59.959,26.142,59.959,25z"/><path d="M78.235,31.998c-0.478-0.677-1.415-0.839-2.091-0.36c-0.677,0.478-0.838,1.414-0.36,2.091   c3.379,4.785,5.164,10.421,5.164,16.299c0,15.601-12.692,28.293-28.293,28.293c-11.241,0-20.97-6.59-25.531-16.107   c0.028,0,0.055,0.001,0.083,0.001c3.794,0,8.145-0.559,12.376-1.535c3.395-0.784,6.639-1.823,9.49-3.014l-1.692,3.566   c-0.355,0.748-0.036,1.643,0.712,1.998c0.208,0.099,0.427,0.145,0.642,0.145c0.561,0,1.1-0.316,1.356-0.857l3.584-7.555   c0.354-0.748,0.036-1.643-0.713-1.998c-0.095-0.045-0.192-0.079-0.291-0.103l-6.82-5.182c-0.66-0.5-1.601-0.373-2.102,0.287   c-0.501,0.66-0.373,1.601,0.287,2.102l5.446,4.138c-3.025,1.413-6.688,2.651-10.575,3.549c-5.134,1.187-9.612,1.553-13.022,1.418   c-0.984-2.871-1.525-5.945-1.525-9.146c0-12.577,8.437-23.767,20.518-27.212c0.796-0.227,1.258-1.057,1.031-1.854   s-1.058-1.259-1.854-1.031c-13.362,3.811-22.694,16.188-22.694,30.097c0,0.497,0.015,0.99,0.038,1.48   c-2.749,0.99-4.184,2.949-4.594,3.592c-0.438,0.686-0.914,1.697-0.701,2.621c0.58,2.509,3.544,3.859,7.656,4.313   c4.719,11.313,15.892,19.287,28.895,19.287c17.255,0,31.293-14.038,31.293-31.293C83.948,43.526,81.973,37.292,78.235,31.998z    M19.078,57.196c0.177-0.495,1.031-1.749,2.627-2.551c0.213,1.435,0.528,2.836,0.93,4.2C20.64,58.487,19.379,57.893,19.078,57.196z   "/></g></g>        </g></svg>