<svg xmlns="http://www.w3.org/2000/svg" xmlns:xlink="http://www.w3.org/1999/xlink" width="500" zoomAndPan="magnify" viewBox="0 0 375 374.999991" height="500" preserveAspectRatio="xMidYMid meet" version="1.0"><path fill="#07c983" d="M 245.238281 209.191406 L 250.949219 201.738281 C 257.246094 193.527344 312.429688 120.515625 312.429688 85.941406 C 312.429688 48.890625 282.289062 18.75 245.238281 18.75 C 208.1875 18.75 178.046875 48.890625 178.046875 85.941406 C 178.046875 120.515625 233.234375 193.527344 239.527344 201.738281 Z M 245.238281 33.148438 C 274.347656 33.148438 298.03125 56.832031 298.03125 85.941406 C 298.03125 108.539062 263.96875 159.742188 245.238281 185.332031 C 226.507812 159.742188 192.445312 108.539062 192.445312 85.941406 C 192.445312 56.832031 216.128906 33.148438 245.238281 33.148438 Z M 245.238281 33.148438 " fill-opacity="1" fill-rule="nonzero"/><path fill="#07c983" d="M 269.582031 85.941406 C 269.582031 72.523438 258.664062 61.605469 245.242188 61.605469 C 231.824219 61.605469 220.898438 72.523438 220.898438 85.941406 C 220.898438 99.359375 231.820312 110.28125 245.238281 110.28125 C 258.65625 110.28125 269.582031 99.359375 269.582031 85.941406 Z M 235.296875 85.941406 C 235.296875 80.460938 239.757812 76.003906 245.238281 76.003906 C 250.71875 76.003906 255.179688 80.460938 255.179688 85.941406 C 255.179688 91.421875 250.71875 95.882812 245.238281 95.882812 C 239.757812 95.882812 235.296875 91.421875 235.296875 85.941406 Z M 235.296875 85.941406 " fill-opacity="1" fill-rule="nonzero"/><path fill="#07c983" d="M 323.011719 119.527344 C 320.71875 116.277344 316.222656 115.5 312.976562 117.800781 C 309.726562 120.09375 308.957031 124.585938 311.25 127.835938 C 327.464844 150.800781 336.035156 177.851562 336.035156 206.0625 C 336.035156 280.9375 275.121094 341.851562 200.242188 341.851562 C 146.292969 341.851562 99.601562 310.222656 77.710938 264.546875 C 77.84375 264.546875 77.972656 264.550781 78.109375 264.550781 C 96.316406 264.550781 117.199219 261.871094 137.503906 257.183594 C 153.800781 253.421875 169.367188 248.4375 183.050781 242.71875 L 174.929688 259.835938 C 173.226562 263.425781 174.757812 267.71875 178.347656 269.421875 C 179.347656 269.898438 180.398438 270.121094 181.429688 270.121094 C 184.121094 270.121094 186.710938 268.601562 187.9375 266.007812 L 205.140625 229.746094 C 206.839844 226.15625 205.3125 221.863281 201.71875 220.15625 C 201.261719 219.941406 200.796875 219.777344 200.320312 219.664062 L 167.589844 194.792969 C 164.421875 192.394531 159.90625 193.003906 157.5 196.171875 C 155.09375 199.335938 155.710938 203.855469 158.878906 206.257812 L 185.015625 226.117188 C 170.496094 232.898438 152.917969 238.839844 134.261719 243.152344 C 109.621094 248.847656 88.128906 250.605469 71.761719 249.957031 C 67.039062 236.179688 64.445312 221.425781 64.445312 206.0625 C 64.445312 145.699219 104.9375 91.992188 162.917969 75.460938 C 166.738281 74.371094 168.957031 70.386719 167.867188 66.5625 C 166.777344 62.738281 162.789062 60.519531 158.96875 61.613281 C 94.839844 79.902344 50.050781 139.304688 50.050781 206.0625 C 50.050781 208.445312 50.121094 210.8125 50.234375 213.164062 C 37.039062 217.917969 30.152344 227.320312 28.183594 230.40625 C 26.082031 233.695312 23.796875 238.550781 24.820312 242.984375 C 27.605469 255.027344 41.828125 261.503906 61.5625 263.683594 C 84.210938 317.980469 137.835938 356.25 200.242188 356.25 C 283.058594 356.25 350.433594 288.875 350.433594 206.0625 C 350.433594 174.855469 340.953125 144.9375 323.011719 119.527344 Z M 39.09375 240.464844 C 39.941406 238.089844 44.042969 232.070312 51.703125 228.21875 C 52.722656 235.109375 54.234375 241.832031 56.164062 248.378906 C 46.589844 246.660156 40.539062 243.808594 39.09375 240.464844 Z M 39.09375 240.464844 " fill-opacity="1" fill-rule="nonzero"/></svg>