
        <svg xmlns="http://www.w3.org/2000/svg" xmlns:xlink="http://www.w3.org/1999/xlink" version="1.1" width="3146.3414634146343" height="1163.4146341463415" viewBox="0 0 3146.3414634146343 1163.4146341463415">
			
			<g transform="scale(7.317073170731708) translate(10, 10)">
				<defs id="SvgjsDefs4215"/><g id="SvgjsG4216" featureKey="rootContainer" transform="matrix(1,0,0,1,0,0)" fill="#fff"><rect xmlns="http://www.w3.org/2000/svg" width="410" height="139" rx="10" ry="10"/></g><g id="SvgjsG4217" featureKey="symbolFeature-0" transform="matrix(0.6651493310928345,0,0,0.6651493310928345,9.323340238749362,38.68335747035515)" fill="#000000"><g xmlns="http://www.w3.org/2000/svg"><path d="M62.03,50.68l1.19-1.553C64.532,47.416,76.03,32.204,76.03,25c0-7.72-6.28-14-14-14s-14,6.28-14,14   c0,7.204,11.499,22.416,12.81,24.127L62.03,50.68z M62.03,14c6.065,0,11,4.935,11,11c0,4.708-7.097,15.377-11,20.709   c-3.903-5.332-11-16.001-11-20.709C51.03,18.935,55.965,14,62.03,14z"/><path d="M67.102,25c0-2.796-2.275-5.071-5.071-5.071S56.959,22.204,56.959,25s2.275,5.071,5.071,5.071S67.102,27.796,67.102,25z    M59.959,25c0-1.142,0.929-2.071,2.071-2.071s2.071,0.929,2.071,2.071s-0.929,2.071-2.071,2.071S59.959,26.142,59.959,25z"/><path d="M78.235,31.998c-0.478-0.677-1.415-0.839-2.091-0.36c-0.677,0.478-0.838,1.414-0.36,2.091   c3.379,4.785,5.164,10.421,5.164,16.299c0,15.601-12.692,28.293-28.293,28.293c-11.241,0-20.97-6.59-25.531-16.107   c0.028,0,0.055,0.001,0.083,0.001c3.794,0,8.145-0.559,12.376-1.535c3.395-0.784,6.639-1.823,9.49-3.014l-1.692,3.566   c-0.355,0.748-0.036,1.643,0.712,1.998c0.208,0.099,0.427,0.145,0.642,0.145c0.561,0,1.1-0.316,1.356-0.857l3.584-7.555   c0.354-0.748,0.036-1.643-0.713-1.998c-0.095-0.045-0.192-0.079-0.291-0.103l-6.82-5.182c-0.66-0.5-1.601-0.373-2.102,0.287   c-0.501,0.66-0.373,1.601,0.287,2.102l5.446,4.138c-3.025,1.413-6.688,2.651-10.575,3.549c-5.134,1.187-9.612,1.553-13.022,1.418   c-0.984-2.871-1.525-5.945-1.525-9.146c0-12.577,8.437-23.767,20.518-27.212c0.796-0.227,1.258-1.057,1.031-1.854   s-1.058-1.259-1.854-1.031c-13.362,3.811-22.694,16.188-22.694,30.097c0,0.497,0.015,0.99,0.038,1.48   c-2.749,0.99-4.184,2.949-4.594,3.592c-0.438,0.686-0.914,1.697-0.701,2.621c0.58,2.509,3.544,3.859,7.656,4.313   c4.719,11.313,15.892,19.287,28.895,19.287c17.255,0,31.293-14.038,31.293-31.293C83.948,43.526,81.973,37.292,78.235,31.998z    M19.078,57.196c0.177-0.495,1.031-1.749,2.627-2.551c0.213,1.435,0.528,2.836,0.93,4.2C20.64,58.487,19.379,57.893,19.078,57.196z   "/></g></g><g id="SvgjsG4218" featureKey="uKAeQw-0" transform="matrix(4.260261058807373,0,0,4.260261058807373,83.04028187037343,-5.56156519862423)" fill="#000000"><path d="M0.66 6 l6.24 0 l0 1.96 l-4.18 10.04 l4.18 0 l0 2 l-6.44 0 l0 -1.96 l4.18 -10.04 l-3.98 0 l0 -2 z M9.282000000000002 20 l0 -14 l2.2 0 l0 14 l-2.2 0 z M17.204 6 l1.6 9.94 l0.04 0 l1.48 -9.94 l3.06 0 l0 14 l-2.08 0 l0 -10.04 l-0.04 0 l-1.48 10.04 l-2.08 0 l-1.6 -9.9 l-0.04 0 l0 9.9 l-1.92 0 l0 -14 l3.06 0 z M29.386000000000003 6 c2.28 0 3.26 1.06 3.26 3.22 l0 0.5 c0 1.44 -0.44 2.34 -1.42 2.8 l0 0.04 c1.18 0.46 1.64 1.5 1.64 2.98 l0 1.14 c0 2.16 -1.14 3.32 -3.34 3.32 l-3.46 0 l0 -14 l3.32 0 z M29.246000000000002 13.7 l-0.98 0 l0 4.3 l1.26 0 c0.74 0 1.14 -0.34 1.14 -1.38 l0 -1.22 c0 -1.3 -0.42 -1.7 -1.42 -1.7 z M29.326 8 l-1.06 0 l0 3.7 l0.86 0 c0.82 0 1.32 -0.36 1.32 -1.48 l0 -0.78 c0 -1 -0.34 -1.44 -1.12 -1.44 z M40.148 6 l2.24 14 l-2.22 0 l-0.38 -2.54 l-2.7 0 l-0.38 2.54 l-2.02 0 l2.24 -14 l3.22 0 z M38.408 8.48 l-1.04 7.08 l2.12 0 l-1.04 -7.08 l-0.04 0 z M47.81 6 c2.28 0 3.26 1.06 3.26 3.22 l0 0.5 c0 1.44 -0.44 2.34 -1.42 2.8 l0 0.04 c1.18 0.46 1.64 1.5 1.64 2.98 l0 1.14 c0 2.16 -1.14 3.32 -3.34 3.32 l-3.46 0 l0 -14 l3.32 0 z M47.67 13.7 l-0.98 0 l0 4.3 l1.26 0 c0.74 0 1.14 -0.34 1.14 -1.38 l0 -1.22 c0 -1.3 -0.42 -1.7 -1.42 -1.7 z M47.75000000000001 8 l-1.06 0 l0 3.7 l0.86 0 c0.82 0 1.32 -0.36 1.32 -1.48 l0 -0.78 c0 -1 -0.34 -1.44 -1.12 -1.44 z M59.352000000000004 20 l-0.78 -7.46 l-0.04 0 l-0.78 7.46 l-3.02 0 l-1.56 -14 l2.14 0 l1.16 11.04 l0.04 0 l1.04 -11.04 l2.12 0 l1.08 11.12 l0.04 0 l1.12 -11.12 l1.92 0 l-1.56 14 l-2.92 0 z M68.21400000000001 8 l0 3.9 l3.02 0 l0 2 l-3.02 0 l0 4.1 l3.8 0 l0 2 l-6 0 l0 -14 l6 0 l0 2 l-3.8 0 z"/></g><g id="SvgjsG4219" featureKey="uKAeQw-1" transform="matrix(2.083740234375,0,0,2.083740234375,84.66660187760678,77.8309595902042)" fill="#000000"><path d="M0.16 8 l0 -2 l6.8 0 l0 2 l-2.3 0 l0 12 l-2.2 0 l0 -12 l-2.3 0 z M15.841999999999999 20 l-2.24 0 c-0.12 -0.36 -0.2 -0.58 -0.2 -1.72 l0 -2.2 c0 -1.3 -0.44 -1.78 -1.44 -1.78 l-0.76 0 l0 5.7 l-2.2 0 l0 -14 l3.32 0 c2.28 0 3.26 1.06 3.26 3.22 l0 1.1 c0 1.44 -0.46 2.36 -1.44 2.82 l0 0.04 c1.1 0.46 1.46 1.5 1.46 2.96 l0 2.16 c0 0.68 0.02 1.18 0.24 1.7 z M12.262 8 l-1.06 0 l0 4.3 l0.86 0 c0.82 0 1.32 -0.36 1.32 -1.48 l0 -1.38 c0 -1 -0.34 -1.44 -1.12 -1.44 z M23.004 6 l2.24 14 l-2.22 0 l-0.38 -2.54 l-2.7 0 l-0.38 2.54 l-2.02 0 l2.24 -14 l3.22 0 z M21.264000000000003 8.48 l-1.04 7.08 l2.12 0 l-1.04 -7.08 l-0.04 0 z M28.486000000000004 6 l1.66 11.42 l0.04 0 l1.66 -11.42 l2.02 0 l-2.16 14 l-3.28 0 l-2.16 -14 l2.22 0 z M38.168000000000006 8 l0 3.9 l3.02 0 l0 2 l-3.02 0 l0 4.1 l3.8 0 l0 2 l-6 0 l0 -14 l6 0 l0 2 l-3.8 0 z M44.410000000000004 20 l0 -14 l2.2 0 l0 12 l3.62 0 l0 2 l-5.82 0 z M56.45400000000001 20 l0 -14 l2.2 0 l0 14 l-2.2 0 z M66.036 20 l-2.7 -10.14 l-0.04 0 l0 10.14 l-1.98 0 l0 -14 l2.76 0 l2.22 8.38 l0.04 0 l0 -8.38 l1.96 0 l0 14 l-2.26 0 z M73.15800000000002 8 l0 4.22 l2.84 0 l0 2 l-2.84 0 l0 5.78 l-2.2 0 l0 -14 l5.82 0 l0 2 l-3.62 0 z M80.94000000000001 9.22 l0 7.56 c0 1 0.44 1.38 1.14 1.38 s1.14 -0.38 1.14 -1.38 l0 -7.56 c0 -1 -0.44 -1.38 -1.14 -1.38 s-1.14 0.38 -1.14 1.38 z M78.74000000000002 16.64 l0 -7.28 c0 -2.24 1.18 -3.52 3.34 -3.52 s3.34 1.28 3.34 3.52 l0 7.28 c0 2.24 -1.18 3.52 -3.34 3.52 s-3.34 -1.28 -3.34 -3.52 z M94.76200000000001 20 l-2.24 0 c-0.12 -0.36 -0.2 -0.58 -0.2 -1.72 l0 -2.2 c0 -1.3 -0.44 -1.78 -1.44 -1.78 l-0.76 0 l0 5.7 l-2.2 0 l0 -14 l3.32 0 c2.28 0 3.26 1.06 3.26 3.22 l0 1.1 c0 1.44 -0.46 2.36 -1.44 2.82 l0 0.04 c1.1 0.46 1.46 1.5 1.46 2.96 l0 2.16 c0 0.68 0.02 1.18 0.24 1.7 z M91.18200000000002 8 l-1.06 0 l0 4.3 l0.86 0 c0.82 0 1.32 -0.36 1.32 -1.48 l0 -1.38 c0 -1 -0.34 -1.44 -1.12 -1.44 z M100.08400000000002 6 l1.6 9.94 l0.04 0 l1.48 -9.94 l3.06 0 l0 14 l-2.08 0 l0 -10.04 l-0.04 0 l-1.48 10.04 l-2.08 0 l-1.6 -9.9 l-0.04 0 l0 9.9 l-1.92 0 l0 -14 l3.06 0 z M113.82600000000002 6 l2.24 14 l-2.22 0 l-0.38 -2.54 l-2.7 0 l-0.38 2.54 l-2.02 0 l2.24 -14 l3.22 0 z M112.08600000000001 8.48 l-1.04 7.08 l2.12 0 l-1.04 -7.08 l-0.04 0 z M116.76800000000001 8 l0 -2 l6.8 0 l0 2 l-2.3 0 l0 12 l-2.2 0 l0 -12 l-2.3 0 z M125.61000000000001 20 l0 -14 l2.2 0 l0 14 l-2.2 0 z M132.512 9.22 l0 7.56 c0 1 0.44 1.38 1.14 1.38 s1.14 -0.38 1.14 -1.38 l0 -7.56 c0 -1 -0.44 -1.38 -1.14 -1.38 s-1.14 0.38 -1.14 1.38 z M130.312 16.64 l0 -7.28 c0 -2.24 1.18 -3.52 3.34 -3.52 s3.34 1.28 3.34 3.52 l0 7.28 c0 2.24 -1.18 3.52 -3.34 3.52 s-3.34 -1.28 -3.34 -3.52 z M144.19400000000002 20 l-2.7 -10.14 l-0.04 0 l0 10.14 l-1.98 0 l0 -14 l2.76 0 l2.22 8.38 l0.04 0 l0 -8.38 l1.96 0 l0 14 l-2.26 0 z"/></g>
			</g>
		</svg>
	